<?xml version="1.0" encoding="utf-8"?>
<!-- Generator: Adobe Illustrator 16.0.0, SVG Export Plug-In . SVG Version: 6.00 Build 0)  -->
<!DOCTYPE svg [
<!ENTITY ns_extend "http://ns.adobe.com/Extensibility/1.0/">
<!ENTITY ns_ai "http://ns.adobe.com/AdobeIllustrator/10.0/">
<!ENTITY ns_graphs "http://ns.adobe.com/Graphs/1.0/">
<!ENTITY ns_vars "http://ns.adobe.com/Variables/1.0/">
<!ENTITY ns_imrep "http://ns.adobe.com/ImageReplacement/1.0/">
<!ENTITY ns_sfw "http://ns.adobe.com/SaveForWeb/1.0/">
<!ENTITY ns_custom "http://ns.adobe.com/GenericCustomNamespace/1.0/">
<!ENTITY ns_adobe_xpath "http://ns.adobe.com/XPath/1.0/">
]>
<svg version="1.2" baseProfile="tiny" id="レイヤー_1" xmlns:x="&ns_extend;" xmlns:i="&ns_ai;" xmlns:graph="&ns_graphs;"
 xmlns="http://www.w3.org/2000/svg" xmlns:xlink="http://www.w3.org/1999/xlink"
 x="0px" y="0px" width="600px" height="440px" style="width: 600px; height: 440px;"
 viewBox="0 0 600 440" xml:space="preserve">
<switch>
<g i:extraneous="self">

<!--
	rect_light	:00aaff
	reck_middle	:0091E0
	rect_dark	:0083C6
	line		:22B5FF
-->

<rect fill="#00aaff" width="600" height="440"/>
<polygon fill="#0091E0" points="75,0 0,110 75,220 150,110 "/>
<polygon fill="#0091E0" points="375,0 300,110 375,220 450,110 "/>
<polygon fill="#0091E0" points="225,220 150,330 225,440 300,330 "/>
<polygon fill="#0091E0" points="525,220 450,330 525,440 600,330 "/>

<polygon fill="#0083C6" points="225,0 150,110 225,220 300,110 "/>
<polygon fill="#0083C6" points="525,0 450,110 525,220 600,110 "/>

<polygon fill="#0083C6" points="75,220 0,330 75,440 150,330 "/>
<polygon fill="#0083C6" points="375,220 300,330 375,440 450,330 "/>


<rect x="117.406" y="181.792" transform="matrix(0.5633 0.8261 -0.8261 0.5633 206.0144 -23.217)" fill="#22B5FF" width="15.13" height="3"/>
<rect x="129.908" y="200.126" transform="matrix(0.5633 0.8261 -0.8261 0.5633 226.6176 -25.5412)" fill="#22B5FF" width="15.13" height="3"/>
<rect x="104.907" y="163.457" transform="matrix(0.5633 0.8261 -0.8261 0.5633 185.4101 -20.8937)" fill="#22B5FF" width="15.13" height="3"/>
<rect x="167.41" y="255.13" transform="matrix(0.5633 0.8261 -0.8261 0.5633 288.4393 -32.5091)" fill="#22B5FF" width="15.13" height="3"/>
<rect x="179.911" y="273.464" transform="matrix(0.5633 0.8261 -0.8261 0.5633 309.0343 -34.8356)" fill="#22B5FF" width="15.13" height="3"/>
<rect x="154.909" y="236.795" transform="matrix(0.5633 0.8261 -0.8261 0.5633 267.8318 -30.1856)" fill="#22B5FF" width="15.13" height="3"/>
<rect x="192.412" y="291.798" transform="matrix(0.5633 0.8261 -0.8261 0.5633 329.6407 -37.1586)" fill="#22B5FF" width="15.13" height="3"/>
<rect x="29.901" y="53.45" transform="matrix(0.5633 0.8261 -0.8261 0.5633 61.7598 -6.9612)" fill="#22B5FF" width="15.13" height="3"/>
<rect x="17.401" y="35.116" transform="matrix(0.5633 0.8261 -0.8261 0.5633 41.1548 -4.6382)" fill="#22B5FF" width="15.13" height="3"/>
<rect x="42.402" y="71.785" transform="matrix(0.5633 0.8261 -0.8261 0.5633 82.3683 -9.2833)" fill="#22B5FF" width="15.13" height="3"/>
<rect x="4.899" y="16.781" transform="matrix(0.5633 0.8261 -0.8261 0.5633 20.5464 -2.3155)" fill="#22B5FF" width="15.13" height="3"/>
<rect x="79.904" y="126.788" transform="matrix(0.5633 0.8261 -0.8261 0.5633 144.1924 -16.2502)" fill="#22B5FF" width="15.13" height="3"/>
<rect x="92.405" y="145.123" transform="matrix(0.5633 0.8261 -0.8261 0.5633 164.7963 -18.5732)" fill="#22B5FF" width="15.13" height="3"/>
<rect x="54.903" y="90.119" transform="matrix(0.5633 0.8261 -0.8261 0.5633 102.9754 -11.606)" fill="#22B5FF" width="15.13" height="3"/>
<rect x="204.912" y="310.133" transform="matrix(0.5633 0.8261 -0.8261 0.5633 350.2602 -39.4763)" fill="#22B5FF" width="15.13" height="3"/>
<rect x="242.414" y="365.136" transform="matrix(-0.5633 -0.8261 0.8261 -0.5633 87.8783 779.7162)" fill="#22B5FF" width="15.13" height="3"/>
<rect x="229.914" y="346.802" transform="matrix(-0.5633 -0.8261 0.8261 -0.5633 83.4845 740.7261)" fill="#22B5FF" width="15.13" height="3"/>
<rect x="254.916" y="383.471" transform="matrix(-0.5633 -0.8261 0.8261 -0.5633 92.2742 818.7094)" fill="#22B5FF" width="15.13" height="3"/>
<rect x="267.416" y="401.805" transform="matrix(-0.5633 -0.8261 0.8261 -0.5633 96.6679 857.6995)" fill="#22B5FF" width="15.13" height="3"/>
<rect x="279.917" y="420.14" transform="matrix(-0.5633 -0.8261 0.8261 -0.5633 101.0624 896.6918)" fill="#22B5FF" width="15.13" height="3"/>
<polygon fill="#22B5FF" points="5.465,5.352 1.815,0 0,0 0,2.663 2.986,7.042 "/>
<rect x="354.912" y="310.133" transform="matrix(0.5633 0.8261 -0.8261 0.5633 415.7594 -163.4102)" fill="#22B5FF" width="15.13" height="3"/>
<rect x="267.406" y="181.792" transform="matrix(0.5633 0.8261 -0.8261 0.5633 271.5159 -147.1524)" fill="#22B5FF" width="15.13" height="3"/>
<rect x="279.908" y="200.126" transform="matrix(0.5633 0.8261 -0.8261 0.5633 292.1168 -149.4752)" fill="#22B5FF" width="15.13" height="3"/>
<rect x="329.911" y="273.464" transform="matrix(0.5633 0.8261 -0.8261 0.5633 374.529 -158.7664)" fill="#22B5FF" width="15.13" height="3"/>
<rect x="304.91" y="236.795" transform="matrix(0.5633 0.8261 -0.8261 0.5633 333.3314 -154.1203)" fill="#22B5FF" width="15.13" height="3"/>
<rect x="342.412" y="291.798" transform="matrix(0.5633 0.8261 -0.8261 0.5633 395.1354 -161.0894)" fill="#22B5FF" width="15.13" height="3"/>
<rect x="254.907" y="163.457" transform="matrix(0.5633 0.8261 -0.8261 0.5633 250.9137 -144.8306)" fill="#22B5FF" width="15.13" height="3"/>
<rect x="317.411" y="255.13" transform="matrix(0.5633 0.8261 -0.8261 0.5633 353.9453 -156.4421)" fill="#22B5FF" width="15.13" height="3"/>
<rect x="192.402" y="71.785" transform="matrix(0.5633 0.8261 -0.8261 0.5633 147.8674 -133.2172)" fill="#22B5FF" width="15.13" height="3"/>
<rect x="167.401" y="35.116" transform="matrix(0.5633 0.8261 -0.8261 0.5633 106.656 -128.5735)" fill="#22B5FF" width="15.13" height="3"/>
<rect x="179.901" y="53.45" transform="matrix(0.5633 0.8261 -0.8261 0.5633 127.2567 -130.8935)" fill="#22B5FF" width="15.13" height="3"/>
<rect x="154.899" y="16.781" transform="matrix(0.5633 0.8261 -0.8261 0.5633 86.0433 -126.2479)" fill="#22B5FF" width="15.13" height="3"/>
<rect x="204.903" y="90.119" transform="matrix(0.5633 0.8261 -0.8261 0.5633 168.4745 -135.5399)" fill="#22B5FF" width="15.13" height="3"/>
<rect x="229.904" y="126.788" transform="matrix(0.5633 0.8261 -0.8261 0.5633 209.6938 -140.1856)" fill="#22B5FF" width="15.13" height="3"/>
<rect x="242.405" y="145.123" transform="matrix(0.5633 0.8261 -0.8261 0.5633 230.2955 -142.5071)" fill="#22B5FF" width="15.13" height="3"/>
<rect x="429.917" y="420.14" transform="matrix(-0.5633 -0.8261 0.8261 -0.5633 335.5633 1020.6257)" fill="#22B5FF" width="15.13" height="3"/>
<rect x="404.915" y="383.471" transform="matrix(-0.5633 -0.8261 0.8261 -0.5633 326.7735 942.6425)" fill="#22B5FF" width="15.13" height="3"/>
<rect x="392.415" y="365.136" transform="matrix(-0.5633 -0.8261 0.8261 -0.5633 322.3513 903.6464)" fill="#22B5FF" width="15.13" height="3"/>
<rect x="417.416" y="401.805" transform="matrix(-0.5633 -0.8261 0.8261 -0.5633 331.1688 981.6334)" fill="#22B5FF" width="15.13" height="3"/>
<rect x="379.914" y="346.802" transform="matrix(-0.5633 -0.8261 0.8261 -0.5633 317.9854 864.66)" fill="#22B5FF" width="15.13" height="3"/>
<rect x="504.912" y="310.133" transform="matrix(0.5633 0.8261 -0.8261 0.5633 481.2586 -287.3441)" fill="#22B5FF" width="15.13" height="3"/>
<rect x="417.406" y="181.792" transform="matrix(0.5633 0.8261 -0.8261 0.5633 337.0173 -271.0878)" fill="#22B5FF" width="15.13" height="3"/>
<rect x="429.908" y="200.126" transform="matrix(0.5633 0.8261 -0.8261 0.5633 357.616 -273.4091)" fill="#22B5FF" width="15.13" height="3"/>
<rect x="479.911" y="273.464" transform="matrix(0.5633 0.8261 -0.8261 0.5633 440.0237 -282.6972)" fill="#22B5FF" width="15.13" height="3"/>
<rect x="454.91" y="236.795" transform="matrix(0.5633 0.8261 -0.8261 0.5633 398.8306 -278.0542)" fill="#22B5FF" width="15.13" height="3"/>
<rect x="492.412" y="291.798" transform="matrix(0.5633 0.8261 -0.8261 0.5633 460.63 -285.0202)" fill="#22B5FF" width="15.13" height="3"/>
<rect x="404.907" y="163.457" transform="matrix(0.5633 0.8261 -0.8261 0.5633 316.4172 -268.7674)" fill="#22B5FF" width="15.13" height="3"/>
<rect x="467.411" y="255.13" transform="matrix(0.5633 0.8261 -0.8261 0.5633 419.4466 -280.3774)" fill="#22B5FF" width="15.13" height="3"/>
<rect x="342.402" y="71.785" transform="matrix(0.5633 0.8261 -0.8261 0.5633 213.3666 -257.1511)" fill="#22B5FF" width="15.13" height="3"/>
<rect x="317.401" y="35.116" transform="matrix(0.5633 0.8261 -0.8261 0.5633 172.1573 -252.5088)" fill="#22B5FF" width="15.13" height="3"/>
<rect x="329.901" y="53.45" transform="matrix(0.5633 0.8261 -0.8261 0.5633 192.7537 -254.8259)" fill="#22B5FF" width="15.13" height="3"/>
<rect x="304.899" y="16.781" transform="matrix(0.5633 0.8261 -0.8261 0.5633 151.5402 -250.1802)" fill="#22B5FF" width="15.13" height="3"/>
<rect x="354.903" y="90.119" transform="matrix(0.5633 0.8261 -0.8261 0.5633 233.9737 -259.4738)" fill="#22B5FF" width="15.13" height="3"/>
<rect x="379.904" y="126.788" transform="matrix(0.5633 0.8261 -0.8261 0.5633 275.1953 -264.121)" fill="#22B5FF" width="15.13" height="3"/>
<rect x="392.405" y="145.123" transform="matrix(0.5633 0.8261 -0.8261 0.5633 295.7946 -266.441)" fill="#22B5FF" width="15.13" height="3"/>
<rect x="579.917" y="420.14" transform="matrix(-0.5633 -0.8261 0.8261 -0.5633 570.064 1144.5596)" fill="#22B5FF" width="15.13" height="3"/>
<rect x="554.915" y="383.471" transform="matrix(-0.5633 -0.8261 0.8261 -0.5633 561.2744 1066.5764)" fill="#22B5FF" width="15.13" height="3"/>
<rect x="542.415" y="365.136" transform="matrix(-0.5633 -0.8261 0.8261 -0.5633 556.8455 1027.5847)" fill="#22B5FF" width="15.13" height="3"/>
<rect x="567.416" y="401.805" transform="matrix(-0.5633 -0.8261 0.8261 -0.5633 565.6696 1105.5673)" fill="#22B5FF" width="15.13" height="3"/>
<rect x="529.914" y="346.802" transform="matrix(-0.5633 -0.8261 0.8261 -0.5633 552.4862 988.5939)" fill="#22B5FF" width="15.13" height="3"/>
<polygon fill="#22B5FF" points="594.482,434.568 598.097,439.869 598,439.998 598,440 598.184,440 598.186,440 600,440 600,437.336 596.961,432.879 "/>
<rect x="567.406" y="181.792" transform="matrix(0.5633 0.8261 -0.8261 0.5633 402.5187 -395.0233)" fill="#22B5FF" width="15.13" height="3"/>
<rect x="579.908" y="200.126" transform="matrix(0.5633 0.8261 -0.8261 0.5633 423.1151 -397.343)" fill="#22B5FF" width="15.13" height="3"/>
<rect x="554.907" y="163.457" transform="matrix(0.5633 0.8261 -0.8261 0.5633 381.9207 -392.7043)" fill="#22B5FF" width="15.13" height="3"/>
<polygon fill="#22B5FF" points="594.473,214.555 598.185,220 594.525,225.365 597.004,227.057 600,222.662 600,217.337 600,217.336 596.951,212.865 "/>
<rect x="492.402" y="71.785" transform="matrix(0.5633 0.8261 -0.8261 0.5633 278.8658 -381.085)" fill="#22B5FF" width="15.13" height="3"/>
<rect x="467.401" y="35.116" transform="matrix(0.5633 0.8261 -0.8261 0.5633 237.6586 -376.4442)" fill="#22B5FF" width="15.13" height="3"/>
<rect x="479.901" y="53.45" transform="matrix(0.5633 0.8261 -0.8261 0.5633 258.2506 -378.7582)" fill="#22B5FF" width="15.13" height="3"/>
<rect x="454.899" y="16.781" transform="matrix(0.5633 0.8261 -0.8261 0.5633 217.0371 -374.1126)" fill="#22B5FF" width="15.13" height="3"/>
<rect x="504.903" y="90.119" transform="matrix(0.5633 0.8261 -0.8261 0.5633 299.4729 -383.4077)" fill="#22B5FF" width="15.13" height="3"/>
<rect x="529.904" y="126.788" transform="matrix(0.5633 0.8261 -0.8261 0.5633 340.6967 -388.0565)" fill="#22B5FF" width="15.13" height="3"/>
<rect x="542.405" y="145.123" transform="matrix(0.5633 0.8261 -0.8261 0.5633 361.2938 -390.3749)" fill="#22B5FF" width="15.13" height="3"/>
<rect x="17.41" y="255.13" transform="matrix(0.5633 0.8261 -0.8261 0.5633 222.9402 91.4248)" fill="#22B5FF" width="15.13" height="3"/>
<rect x="29.911" y="273.464" transform="matrix(0.5633 0.8261 -0.8261 0.5633 243.5397 89.0952)" fill="#22B5FF" width="15.13" height="3"/>
<rect x="4.909" y="236.795" transform="matrix(0.5633 0.8261 -0.8261 0.5633 202.3326 93.7483)" fill="#22B5FF" width="15.13" height="3"/>
<rect x="42.412" y="291.798" transform="matrix(0.5633 0.8261 -0.8261 0.5633 264.146 86.7723)" fill="#22B5FF" width="15.13" height="3"/>
<rect x="54.912" y="310.133" transform="matrix(0.5633 0.8261 -0.8261 0.5633 284.761 84.4576)" fill="#22B5FF" width="15.13" height="3"/>
<rect x="92.414" y="365.136" transform="matrix(-0.5633 -0.8261 0.8261 -0.5633 -146.6226 655.7823)" fill="#22B5FF" width="15.13" height="3"/>
<rect x="79.914" y="346.802" transform="matrix(-0.5633 -0.8261 0.8261 -0.5633 -151.0163 616.7922)" fill="#22B5FF" width="15.13" height="3"/>
<rect x="104.916" y="383.471" transform="matrix(-0.5633 -0.8261 0.8261 -0.5633 -142.2266 694.7755)" fill="#22B5FF" width="15.13" height="3"/>
<rect x="117.416" y="401.805" transform="matrix(-0.5633 -0.8261 0.8261 -0.5633 -137.8329 733.7656)" fill="#22B5FF" width="15.13" height="3"/>
<rect x="129.917" y="420.14" transform="matrix(-0.5633 -0.8261 0.8261 -0.5633 -133.4384 772.7579)" fill="#22B5FF" width="15.13" height="3"/>
<rect x="473.528" y="175.727" transform="matrix(-0.8261 -0.5633 0.5633 -0.8261 764.2496 602.3369)" fill="#22B5FF" width="3" height="15.13"/>
<rect x="461.027" y="194.061" transform="matrix(-0.8261 -0.5633 0.5633 -0.8261 731.0341 628.8129)" fill="#22B5FF" width="3" height="15.13"/>
<rect x="486.029" y="157.392" transform="matrix(-0.8261 -0.5633 0.5633 -0.8261 797.3518 575.9374)" fill="#22B5FF" width="3" height="15.13"/>
<rect x="423.525" y="249.065" transform="matrix(-0.8261 -0.5633 0.5633 -0.8261 631.6774 708.0712)" fill="#22B5FF" width="3" height="15.13"/>
<rect x="411.024" y="267.399" transform="matrix(-0.8261 -0.5633 0.5633 -0.8261 598.3987 734.564)" fill="#22B5FF" width="3" height="15.13"/>
<rect x="436.026" y="230.731" transform="matrix(-0.8261 -0.5633 0.5633 -0.8261 664.717 681.6896)" fill="#22B5FF" width="3" height="15.13"/>
<rect x="398.523" y="285.733" transform="matrix(-0.826 -0.5637 0.5637 -0.826 565.1136 761.046)" fill="#22B5FF" width="3" height="15.13"/>
<polygon fill="#22B5FF" points="450,217.336 446.951,212.865 444.473,214.555 448.185,219.999 444.525,225.365 447.004,227.057 450,222.662 452.996,227.057 455.475,225.365 451.815,219.999 455.527,214.555 453.049,212.865 "/>
<rect x="561.034" y="47.385" transform="matrix(-0.8261 -0.5633 0.5633 -0.8261 996.3069 417.3109)" fill="#22B5FF" width="3" height="15.13"/>
<rect x="573.535" y="29.051" transform="matrix(-0.8261 -0.5633 0.5633 -0.8261 1029.5129 390.8119)" fill="#22B5FF" width="3" height="15.13"/>
<rect x="548.533" y="65.72" transform="matrix(-0.8261 -0.5633 0.5633 -0.8261 963.1474 443.749)" fill="#22B5FF" width="3" height="15.13"/>
<rect x="586.036" y="10.716" transform="matrix(-0.8261 -0.5633 0.5633 -0.8261 1062.6255 364.4357)" fill="#22B5FF" width="3" height="15.13"/>
<polygon fill="#22B5FF" points="525,107.337 521.946,102.858 519.468,104.548 523.185,110 519.531,115.359 522.01,117.049 525,112.663 527.99,117.049 530.469,115.359 526.815,110 530.532,104.548 528.054,102.858 "/>
<rect x="511.03" y="120.723" transform="matrix(-0.8261 -0.5633 0.5633 -0.8261 863.7225 523.0151)" fill="#22B5FF" width="3" height="15.13"/>
<rect x="498.53" y="139.057" transform="matrix(-0.8261 -0.5633 0.5633 -0.8261 830.512 549.5001)" fill="#22B5FF" width="3" height="15.13"/>
<rect x="536.032" y="84.054" transform="matrix(-0.8261 -0.5633 0.5633 -0.8261 929.9882 470.1866)" fill="#22B5FF" width="3" height="15.13"/>
<rect x="386.022" y="304.069" transform="matrix(-0.8261 -0.5633 0.5633 -0.8261 532.0798 787.4401)" fill="#22B5FF" width="3" height="15.13"/>
<rect x="348.521" y="359.071" transform="matrix(-0.8261 -0.5633 0.5633 -0.8261 432.7385 866.7305)" fill="#22B5FF" width="3" height="15.13"/>
<rect x="361.021" y="340.737" transform="matrix(-0.8261 -0.5633 0.5633 -0.8261 465.8936 840.2876)" fill="#22B5FF" width="3" height="15.13"/>
<polygon fill="#22B5FF" points="378.044,322.872 375,327.336 371.956,322.872 369.478,324.562 373.185,329.999 369.521,335.373 371.999,337.062 375,332.661 378.001,337.062 380.479,335.373 376.815,329.999 380.522,324.562 "/>
<rect x="336.019" y="377.406" transform="matrix(-0.8261 -0.5633 0.5633 -0.8261 399.5793 893.174)" fill="#22B5FF" width="3" height="15.13"/>
<polygon fill="#22B5FF" points="303.039,432.879 300,437.336 296.961,432.879 294.482,434.568 298.097,439.869 298,439.998 298,440 298.184,440 298.186,440 301.814,440 301.816,440 302,440 302,439.998 301.903,439.869 305.518,434.568 "/>
<rect x="323.519" y="395.74" transform="matrix(-0.8261 -0.5633 0.5633 -0.8261 366.4243 919.6168)" fill="#22B5FF" width="3" height="15.13"/>
<rect x="311.018" y="414.075" transform="matrix(-0.8261 -0.5633 0.5633 -0.8261 333.2668 946.0609)" fill="#22B5FF" width="3" height="15.13"/>
<polygon fill="#22B5FF" points="598.185,0 594.535,5.352 597.014,7.042 600,2.663 600,0 "/>
<rect x="236.022" y="304.069" transform="matrix(-0.8261 -0.5633 0.5633 -0.8261 258.1581 702.9214)" fill="#22B5FF" width="3" height="15.13"/>
<rect x="323.528" y="175.727" transform="matrix(-0.8261 -0.5633 0.5633 -0.8261 490.3166 517.8348)" fill="#22B5FF" width="3" height="15.13"/>
<rect x="311.027" y="194.061" transform="matrix(-0.8261 -0.5633 0.5633 -0.8261 457.1124 544.2943)" fill="#22B5FF" width="3" height="15.13"/>
<rect x="261.024" y="267.399" transform="matrix(-0.8261 -0.5633 0.5633 -0.8261 324.477 650.0453)" fill="#22B5FF" width="3" height="15.13"/>
<rect x="286.025" y="230.731" transform="matrix(-0.8261 -0.5633 0.5633 -0.8261 390.7935 597.1704)" fill="#22B5FF" width="3" height="15.13"/>
<rect x="248.523" y="285.733" transform="matrix(-0.826 -0.5637 0.5637 -0.826 291.2147 676.494)" fill="#22B5FF" width="3" height="15.13"/>
<rect x="336.029" y="157.392" transform="matrix(-0.8261 -0.5633 0.5633 -0.8261 523.4301 491.4187)" fill="#22B5FF" width="3" height="15.13"/>
<rect x="273.525" y="249.065" transform="matrix(-0.8261 -0.5633 0.5633 -0.8261 357.7338 623.5861)" fill="#22B5FF" width="3" height="15.13"/>
<polygon fill="#22B5FF" points="300,217.336 296.951,212.865 294.473,214.555 298.185,219.999 294.525,225.365 297.004,227.057 300,222.662 302.996,227.057 305.475,225.365 301.815,219.999 305.527,214.555 303.049,212.865 "/>
<rect x="398.533" y="65.72" transform="matrix(-0.8261 -0.5633 0.5633 -0.8261 689.2257 359.2303)" fill="#22B5FF" width="3" height="15.13"/>
<rect x="423.535" y="29.051" transform="matrix(-0.8261 -0.5633 0.5633 -0.8261 755.5798 306.3099)" fill="#22B5FF" width="3" height="15.13"/>
<rect x="411.034" y="47.385" transform="matrix(-0.8261 -0.5633 0.5633 -0.8261 722.3851 332.7922)" fill="#22B5FF" width="3" height="15.13"/>
<rect x="436.036" y="10.716" transform="matrix(-0.8261 -0.5633 0.5633 -0.8261 788.7037 279.917)" fill="#22B5FF" width="3" height="15.13"/>
<rect x="386.032" y="84.054" transform="matrix(-0.8261 -0.5633 0.5633 -0.8261 656.0664 385.6679)" fill="#22B5FF" width="3" height="15.13"/>
<rect x="361.03" y="120.723" transform="matrix(-0.8261 -0.5633 0.5633 -0.8261 589.7894 438.5131)" fill="#22B5FF" width="3" height="15.13"/>
<polygon fill="#22B5FF" points="375,107.337 371.946,102.858 369.468,104.548 373.185,110 369.531,115.359 372.01,117.049 375,112.663 377.99,117.049 380.469,115.359 376.815,110 380.532,104.548 378.054,102.858 "/>
<rect x="348.53" y="139.057" transform="matrix(-0.8261 -0.5633 0.5633 -0.8261 556.5903 464.9814)" fill="#22B5FF" width="3" height="15.13"/>
<rect x="161.018" y="414.075" transform="matrix(-0.8261 -0.5633 0.5633 -0.8261 59.3224 861.5755)" fill="#22B5FF" width="3" height="15.13"/>
<polygon fill="#22B5FF" points="228.044,322.872 225,327.336 221.956,322.872 219.478,324.562 223.185,329.999 219.521,335.373 221.999,337.062 225,332.661 228.001,337.062 230.479,335.373 226.815,329.999 230.522,324.562 "/>
<rect x="186.02" y="377.406" transform="matrix(-0.8261 -0.5633 0.5633 -0.8261 125.6367 808.6891)" fill="#22B5FF" width="3" height="15.13"/>
<rect x="198.52" y="359.071" transform="matrix(-0.8261 -0.5633 0.5633 -0.8261 158.7932 782.2448)" fill="#22B5FF" width="3" height="15.13"/>
<rect x="173.519" y="395.74" transform="matrix(-0.8261 -0.5633 0.5633 -0.8261 92.4798 835.1314)" fill="#22B5FF" width="3" height="15.13"/>
<rect x="211.021" y="340.737" transform="matrix(-0.8261 -0.5633 0.5633 -0.8261 191.9491 755.8022)" fill="#22B5FF" width="3" height="15.13"/>
<polygon fill="#22B5FF" points="153.039,432.879 150,437.336 146.961,432.879 144.482,434.568 148.097,439.869 148,439.998 148,440 148.184,440 148.186,440 151.814,440 151.816,440 152,440 152,439.998 151.903,439.869 155.518,434.568 "/>
<polygon fill="#22B5FF" points="450,2.66 452.986,7.042 455.465,5.352 451.815,0 451.812,0 448.188,0 448.185,0 444.535,5.352 447.014,7.042 "/>
<rect x="86.022" y="304.069" transform="matrix(-0.8261 -0.5633 0.5633 -0.8261 -15.7636 618.4027)" fill="#22B5FF" width="3" height="15.13"/>
<rect x="173.528" y="175.727" transform="matrix(-0.8261 -0.5633 0.5633 -0.8261 216.3835 433.3328)" fill="#22B5FF" width="3" height="15.13"/>
<rect x="161.027" y="194.061" transform="matrix(-0.8261 -0.5633 0.5633 -0.8261 183.1907 459.7755)" fill="#22B5FF" width="3" height="15.13"/>
<rect x="111.024" y="267.399" transform="matrix(-0.8261 -0.5633 0.5633 -0.8261 50.5553 565.5266)" fill="#22B5FF" width="3" height="15.13"/>
<rect x="136.025" y="230.731" transform="matrix(-0.8261 -0.5633 0.5633 -0.8261 116.8718 512.6517)" fill="#22B5FF" width="3" height="15.13"/>
<rect x="98.523" y="285.733" transform="matrix(-0.826 -0.5637 0.5637 -0.826 17.3157 591.942)" fill="#22B5FF" width="3" height="15.13"/>
<rect x="186.029" y="157.392" transform="matrix(-0.8261 -0.5633 0.5633 -0.8261 249.5084 406.9)" fill="#22B5FF" width="3" height="15.13"/>
<rect x="123.525" y="249.065" transform="matrix(-0.8261 -0.5633 0.5633 -0.8261 83.7894 539.1007)" fill="#22B5FF" width="3" height="15.13"/>
<polygon fill="#22B5FF" points="150,217.336 146.951,212.865 144.473,214.555 148.185,219.999 144.525,225.365 147.004,227.057 150,222.662 152.996,227.057 155.475,225.365 151.815,219.999 155.527,214.555 153.049,212.865 "/>
<rect x="248.533" y="65.72" transform="matrix(-0.8261 -0.5633 0.5633 -0.8261 415.304 274.7116)" fill="#22B5FF" width="3" height="15.13"/>
<rect x="273.535" y="29.051" transform="matrix(-0.8261 -0.5633 0.5633 -0.8261 481.6467 221.8078)" fill="#22B5FF" width="3" height="15.13"/>
<rect x="261.034" y="47.385" transform="matrix(-0.8261 -0.5633 0.5633 -0.8261 448.4634 248.2735)" fill="#22B5FF" width="3" height="15.13"/>
<rect x="286.036" y="10.716" transform="matrix(-0.8261 -0.5633 0.5633 -0.8261 514.782 195.3983)" fill="#22B5FF" width="3" height="15.13"/>
<rect x="236.032" y="84.054" transform="matrix(-0.8261 -0.5633 0.5633 -0.8261 382.1447 301.1492)" fill="#22B5FF" width="3" height="15.13"/>
<rect x="211.03" y="120.723" transform="matrix(-0.8261 -0.5633 0.5633 -0.8261 315.8563 354.011)" fill="#22B5FF" width="3" height="15.13"/>
<polygon fill="#22B5FF" points="225,107.337 221.946,102.858 219.468,104.548 223.185,110 219.531,115.359 222.01,117.049 225,112.663 227.99,117.049 230.469,115.359 226.815,110 230.532,104.548 228.054,102.858 "/>
<rect x="198.53" y="139.057" transform="matrix(-0.8261 -0.5633 0.5633 -0.8261 282.6686 380.4626)" fill="#22B5FF" width="3" height="15.13"/>
<rect x="11.018" y="414.075" transform="matrix(-0.8261 -0.5633 0.5633 -0.8261 -214.622 777.0901)" fill="#22B5FF" width="3" height="15.13"/>
<polygon fill="#22B5FF" points="78.044,322.872 75,327.336 71.956,322.872 69.478,324.562 73.185,329.999 69.521,335.373 71.999,337.062 75,332.661 78.001,337.062 80.479,335.373 76.815,329.999 80.522,324.562 "/>
<rect x="36.02" y="377.406" transform="matrix(-0.8261 -0.5633 0.5633 -0.8261 -148.3078 724.2038)" fill="#22B5FF" width="3" height="15.13"/>
<rect x="48.52" y="359.071" transform="matrix(-0.8261 -0.5633 0.5633 -0.8261 -115.1513 697.7594)" fill="#22B5FF" width="3" height="15.13"/>
<rect x="23.519" y="395.74" transform="matrix(-0.8261 -0.5633 0.5633 -0.8261 -181.4646 750.6461)" fill="#22B5FF" width="3" height="15.13"/>
<rect x="61.021" y="340.737" transform="matrix(-0.8261 -0.5633 0.5633 -0.8261 -81.9953 671.3168)" fill="#22B5FF" width="3" height="15.13"/>
<polygon fill="#22B5FF" points="3.039,432.879 0,437.336 0,440 1.814,440 1.816,440 2,440 2,439.998 1.903,439.869 5.518,434.568 "/>
<polygon fill="#22B5FF" points="300,2.66 302.986,7.042 305.465,5.352 301.815,0 301.812,0 298.188,0 298.185,0 294.535,5.352 297.014,7.042 "/>
<rect x="23.528" y="175.727" transform="matrix(-0.8261 -0.5633 0.5633 -0.8261 -57.5496 348.8308)" fill="#22B5FF" width="3" height="15.13"/>
<rect x="11.027" y="194.061" transform="matrix(-0.8261 -0.5633 0.5633 -0.8261 -90.731 375.2568)" fill="#22B5FF" width="3" height="15.13"/>
<rect x="36.029" y="157.392" transform="matrix(-0.8261 -0.5633 0.5633 -0.8261 -24.4133 322.3813)" fill="#22B5FF" width="3" height="15.13"/>
<polygon fill="#22B5FF" points="0,217.336 0,217.337 0,222.662 2.996,227.057 5.475,225.365 1.815,220 5.527,214.555 3.049,212.865 "/>
<rect x="98.533" y="65.72" transform="matrix(-0.8261 -0.5633 0.5633 -0.8261 141.3823 190.1929)" fill="#22B5FF" width="3" height="15.13"/>
<rect x="123.535" y="29.051" transform="matrix(-0.8261 -0.5633 0.5633 -0.8261 207.7137 137.3058)" fill="#22B5FF" width="3" height="15.13"/>
<rect x="111.034" y="47.385" transform="matrix(-0.8261 -0.5633 0.5633 -0.8261 174.5417 163.7549)" fill="#22B5FF" width="3" height="15.13"/>
<rect x="136.036" y="10.716" transform="matrix(-0.8261 -0.5633 0.5633 -0.8261 240.8603 110.8796)" fill="#22B5FF" width="3" height="15.13"/>
<rect x="86.032" y="84.054" transform="matrix(-0.8261 -0.5633 0.5633 -0.8261 108.223 216.6306)" fill="#22B5FF" width="3" height="15.13"/>
<rect x="61.03" y="120.723" transform="matrix(-0.8261 -0.5633 0.5633 -0.8261 41.9232 269.509)" fill="#22B5FF" width="3" height="15.13"/>
<polygon fill="#22B5FF" points="75,107.337 71.946,102.858 69.468,104.548 73.185,110 69.531,115.359 72.01,117.049 75,112.663 77.99,117.049 80.469,115.359 76.815,110 80.532,104.548 78.054,102.858 "/>
<rect x="48.53" y="139.057" transform="matrix(-0.8261 -0.5633 0.5633 -0.8261 8.7469 295.944)" fill="#22B5FF" width="3" height="15.13"/>
<polygon fill="#22B5FF" points="150,2.66 152.986,7.042 155.465,5.352 151.815,0 151.812,0 148.188,0 148.185,0 144.535,5.352 147.014,7.042 "/>
<rect x="573.525" y="249.065" transform="matrix(-0.8261 -0.5633 0.5633 -0.8261 905.6218 792.5565)" fill="#22B5FF" width="3" height="15.13"/>
<rect x="561.024" y="267.399" transform="matrix(-0.8261 -0.5633 0.5633 -0.8261 872.3204 819.0827)" fill="#22B5FF" width="3" height="15.13"/>
<rect x="586.026" y="230.731" transform="matrix(-0.8261 -0.5633 0.5633 -0.8261 938.6388 766.2083)" fill="#22B5FF" width="3" height="15.13"/>
<rect x="548.523" y="285.733" transform="matrix(-0.826 -0.5637 0.5637 -0.826 839.0126 845.598)" fill="#22B5FF" width="3" height="15.13"/>
<rect x="536.022" y="304.069" transform="matrix(-0.8261 -0.5633 0.5633 -0.8261 806.0015 871.9589)" fill="#22B5FF" width="3" height="15.13"/>
<rect x="498.521" y="359.071" transform="matrix(-0.8261 -0.5633 0.5633 -0.8261 706.6829 951.2158)" fill="#22B5FF" width="3" height="15.13"/>
<rect x="511.021" y="340.737" transform="matrix(-0.8261 -0.5633 0.5633 -0.8261 739.838 924.7729)" fill="#22B5FF" width="3" height="15.13"/>
<polygon fill="#22B5FF" points="528.044,322.872 525,327.336 521.956,322.872 519.478,324.562 523.185,329.999 519.521,335.373 521.999,337.062 525,332.661 528.001,337.062 530.479,335.373 526.815,329.999 530.522,324.562 "/>
<rect x="486.019" y="377.406" transform="matrix(-0.8261 -0.5633 0.5633 -0.8261 673.5237 977.6593)" fill="#22B5FF" width="3" height="15.13"/>
<polygon fill="#22B5FF" points="453.039,432.879 450,437.336 446.961,432.879 444.482,434.568 448.097,439.869 448,439.998 448,440 448.184,440 448.186,440 451.814,440 451.816,440 452,440 452,439.998 451.903,439.869 455.518,434.568 "/>
<rect x="473.519" y="395.74" transform="matrix(-0.8261 -0.5633 0.5633 -0.8261 640.3687 1004.1022)" fill="#22B5FF" width="3" height="15.13"/>
<rect x="461.018" y="414.075" transform="matrix(-0.8261 -0.5633 0.5633 -0.8261 607.2113 1030.5463)" fill="#22B5FF" width="3" height="15.13"/>
</g>
</switch>
</svg>
